<?xml version="1.0" encoding="utf-8"?>
<!-- Generator: Adobe Illustrator 23.1.0, SVG Export Plug-In . SVG Version: 6.00 Build 0)  -->
<svg version="1.1" xmlns="http://www.w3.org/2000/svg" xmlns:xlink="http://www.w3.org/1999/xlink" x="0px" y="0px"
	 viewBox="0 0 1366 768" style="enable-background:new 0 0 1366 768;" xml:space="preserve">
<style type="text/css">
	.st0{fill:#FF0000;}
	.st1{display:none;}
</style>
<g id="Layer_1">
	<g>
		<g>
			<path class="st0" d="M78.09,123.52H91l1.85,11.88h157.95l1.48-11.88h13.47l27.12,103.65l-16.61,8.09
				c-8-27.64-17.47-47.06-28.42-58.27c-10.95-11.21-24.97-16.81-42.07-16.81c-7.14,0-11.38,0.38-12.73,1.14
				c-1.36,0.76-2.31,2.07-2.86,3.92c-0.55,1.86-0.83,7.75-0.83,17.7v244.71c0,11.63,0.46,19.47,1.38,23.51
				c0.92,4.04,2.24,7.17,3.97,9.35c1.72,2.19,4.09,3.75,7.1,4.68c3.01,0.93,9.75,1.48,20.21,1.64v21.24h-99.27v-21.24
				c10.95-0.17,17.65-0.68,20.11-1.53c4.3-1.7,7.38-4.92,9.23-9.67c1.85-4.75,2.77-13.49,2.77-26.22V179.62
				c0-7.74-0.28-12.46-0.83-14.14c-0.55-1.68-1.6-2.99-3.14-3.91c-1.54-0.92-4.71-1.39-9.5-1.39c-13.41,0-24.14,2.36-32.2,7.08
				c-8.06,4.72-15.66,12.73-22.79,24.02c-7.14,11.29-13.22,25.96-18.27,43.99l-16.61-8.09L78.09,123.52z"/>
			<path d="M440.52,444.05c-24.19,41.42-50.64,50.22-62.73,50.22c-46.1,0-74.07-51.77-74.07-111.31c0-35.21,9.07-67.82,24.56-90.6
				c15.87-24.33,36.66-37.79,56.31-37.79c32.88,0,57.82,38.83,57.82,80.25c-0.38,10.35-1.51,15.01-7.56,17.08
				c-7.56,2.07-55.93,6.73-100.9,8.8c-1.13,69.38,29.85,97.85,56.68,97.85c15.49,0,29.85-8.8,43.84-26.4L440.52,444.05z
				 M375.52,274.24c-17.38,0-34.39,22.26-39.68,64.2c21.16,0,42.32,0,64.62-1.55c6.8,0,9.07-2.59,9.07-10.35
				C409.91,299.09,396.68,274.24,375.52,274.24z"/>
			<path d="M545.57,488.06v-14.5c16.25-2.59,19.65-6.21,13.23-20.19l-28.34-60.58c-8.31,18.64-16.63,36.76-24.19,54.88
				c-7.18,17.6-6.42,22.26,13.23,25.89v14.5h-71.42v-14.5c23.81-4.14,28.72-7.77,42.7-33.13c10.58-20.19,20.41-40.38,31.74-63.68
				l-32.5-69.89c-11.34-24.85-15.87-28.48-37.03-32.1v-13.98h75.96v13.98c-15.87,3.11-17.38,7.25-10.58,22.26l22.67,47.11
				c7.18-15.01,14.74-32.62,21.54-48.15c6.42-14.5,4.16-18.64-12.09-21.23v-13.98h68.78v13.98c-20.41,3.11-28.34,5.18-43.46,32.1
				c-5.29,9.84-14.36,26.92-26.83,52.81l36.28,76.62c14.36,28.48,18.52,33.13,41.57,37.28v14.5H545.57z"/>
			<path d="M705.04,487.54c-6.42,4.66-12.47,6.73-16.25,6.73c-24.19,0-37.03-20.19-37.03-61.61V282h-26.08l-1.51-6.21l10.2-15.01
				h17.38v-43.49c7.18-10.35,18.14-23.82,25.32-34.17l5.67,1.04c-0.76,21.74-1.13,51.77-1.13,76.62h43.08
				c3.4,5.18,2.27,16.57-2.27,21.23h-40.81v132.54c0,41.94,12.09,49.7,21.92,49.7c9.07,0,17.76-4.66,23.05-8.28l3.4,13.46
				L705.04,487.54z"/>
			<path d="M884.53,444.05c-24.19,41.42-50.64,50.22-62.73,50.22c-46.1,0-74.07-51.77-74.07-111.31c0-35.21,9.07-67.82,24.56-90.6
				c15.87-24.33,36.66-37.79,56.31-37.79c32.88,0,57.82,38.83,57.82,80.25c-0.38,10.35-1.51,15.01-7.56,17.08
				c-7.56,2.07-55.93,6.73-100.9,8.8c-1.13,69.38,29.85,97.85,56.69,97.85c15.49,0,29.85-8.8,43.84-26.4L884.53,444.05z
				 M819.54,274.24c-17.38,0-34.39,22.26-39.68,64.2c21.16,0,42.33,0,64.62-1.55c6.8,0,9.07-2.59,9.07-10.35
				C853.92,299.09,840.7,274.24,819.54,274.24z"/>
			<path d="M996.01,488.06h-86.92v-14.5c23.81-3.11,26.08-5.7,26.08-39.35V326.53c0-34.17-1.51-35.72-23.43-39.35v-12.94
				c18.52-4.14,35.52-10.35,53.28-21.23c0,17.08,0,39.87,0,56.95c13.23-26.92,29.1-55.4,47.99-55.4c13.98,0,21.92,11.91,21.92,24.85
				c0,11.91-6.05,23.3-12.85,28.48c-3.78,3.11-6.8,2.59-9.83-1.04c-5.67-7.77-10.2-12.94-17-12.94c-7.94,0-21.92,16.05-30.23,42.45
				v97.33c0,34.17,1.89,36.76,30.99,39.87V488.06z"/>
			<path d="M1136.58,488.06h-86.92v-14.5c23.81-3.11,26.08-5.7,26.08-39.35V326.53c0-34.17-1.51-35.72-23.43-39.35v-12.94
				c18.52-4.14,35.52-10.35,53.28-21.23c0,17.08,0,39.87,0,56.95c13.23-26.92,29.1-55.4,47.99-55.4c13.98,0,21.92,11.91,21.92,24.85
				c0,11.91-6.05,23.3-12.85,28.48c-3.78,3.11-6.8,2.59-9.83-1.04c-5.67-7.77-10.2-12.94-17-12.94c-7.94,0-21.92,16.05-30.23,42.45
				v97.33c0,34.17,1.89,36.76,30.99,39.87V488.06z"/>
			<path d="M1311.55,494.27c-5.67,0-13.98-4.14-17.76-9.84c-4.91-6.73-7.18-13.98-9.07-23.3c-15.12,13.98-33.63,33.13-45.35,33.13
				c-26.83,0-46.1-30.55-46.1-63.68c0-25.37,10.2-41.94,30.99-51.77c23.05-10.87,51.39-24.33,59.71-33.65v-10.35
				c0-36.76-13.6-57.99-33.25-57.99c-8.69,0-13.98,5.7-17.76,11.91c-4.16,7.25-6.8,18.64-10.2,33.65
				c-1.89,8.28-5.29,11.91-10.96,11.91c-7.18,0-16.63-10.35-16.63-22.78c0-7.25,4.91-13.46,12.47-20.71
				c10.96-10.87,32.88-30.03,54.42-36.24c11.34,0,23.05,4.66,31.74,13.98c13.23,15.53,19.27,33.13,19.27,60.06v99.92
				c0,23.82,6.42,31.06,13.23,31.06c4.53,0,9.45-2.59,13.6-5.69l3.78,14.5L1311.55,494.27z M1283.96,363.29
				c-8.31,5.69-26.45,16.57-35.14,21.74c-14.36,8.8-23.05,18.64-23.05,37.79c0,27.44,15.12,39.87,27.21,39.87
				c9.83,0,23.43-8.28,30.99-18.64C1283.96,419.72,1283.96,387.62,1283.96,363.29z"/>
		</g>
	</g>
</g>
<g id="Layer_2" class="st1">
</g>
</svg>
